# xmcd
#
# Track frame offsets:
#	150
#	12885
#	28257
#	42558
#	53550
#	64258
#	74748
#	88191
#	98379
#	110358
#
# Disc length: 1636 seconds
#
# Revision: 1
# Processed by: cddbd v1.5.2PL0 Copyright (c) Steve Scherf et al.
# Submitted via: audiograbber 1.83.01
#
DISCID=8506620a
DTITLE=George Jones - Wrapped Around Her Finger
DYEAR=1972
DGENRE=Country
TTITLE0=Wrapped Around Her Finger
TTITLE1=After You
TTITLE2=Mama's Hungry Eyes
TTITLE3=Ruby Don't Take Your Love To Town
TTITLE4=I Just Got Tired Of Being Poor
TTITLE5=With Half A Heart
TTITLE6=You And Your Sweet Love
TTITLE7=When Love Was Green
TTITLE8=The Hardest Part Of All
TTITLE9=Divorce Or Destroy
EXTD=
EXTT0=
EXTT1=
EXTT2=
EXTT3=
EXTT4=
EXTT5=
EXTT6=
EXTT7=
EXTT8=
EXTT9=
PLAYORDER=
